<svg xmlns="http://www.w3.org/2000/svg" xmlns:xlink="http://www.w3.org/1999/xlink" width="500" zoomAndPan="magnify" viewBox="0 0 375 374.999991" height="500" preserveAspectRatio="xMidYMid meet" version="1.0"><defs><clipPath id="ebe8b1e823"><path d="M 59.347656 207 L 267.097656 207 L 267.097656 270.28125 L 59.347656 270.28125 Z M 59.347656 207 " clip-rule="nonzero"/></clipPath><clipPath id="afc43f591d"><path d="M 59.347656 84.28125 L 315.847656 84.28125 L 315.847656 290.53125 L 59.347656 290.53125 Z M 59.347656 84.28125 " clip-rule="nonzero"/></clipPath><clipPath id="2681ed8808"><path d="M 74 248 L 301 248 L 301 290.53125 L 74 290.53125 Z M 74 248 " clip-rule="nonzero"/></clipPath><clipPath id="f140768e35"><path d="M 59.347656 231 L 315.847656 231 L 315.847656 252 L 59.347656 252 Z M 59.347656 231 " clip-rule="nonzero"/></clipPath><clipPath id="06669dd823"><path d="M 158 84.28125 L 217 84.28125 L 217 98 L 158 98 Z M 158 84.28125 " clip-rule="nonzero"/></clipPath></defs><path fill="#ffde59" d="M 146.71875 119.871094 C 127.59375 141.570312 90.9375 183.214844 75.570312 200.703125 L 251.214844 200.703125 C 235.847656 183.171875 199.234375 141.570312 180.109375 119.832031 L 190.691406 97.722656 C 191.46875 96.089844 190.8125 94.125 189.21875 93.308594 C 172.097656 84.320312 154.6875 84.320312 137.566406 93.308594 C 135.972656 94.167969 135.320312 96.089844 136.09375 97.722656 Z M 146.71875 119.871094 " fill-opacity="1" fill-rule="nonzero"/><g clip-path="url(#ebe8b1e823)"><path fill="#ffde59" d="M 264.085938 207.449219 L 62.699219 207.449219 C 60.859375 207.449219 59.347656 208.960938 59.347656 210.800781 L 59.347656 228.25 C 59.347656 230.085938 60.859375 231.601562 62.699219 231.601562 L 70.628906 231.601562 C 73.203125 242.144531 83.417969 251.707031 99.804688 258.816406 C 117.050781 266.296875 139.609375 270.382812 163.394531 270.382812 C 187.175781 270.382812 209.734375 266.253906 226.980469 258.816406 C 243.367188 251.707031 253.585938 242.144531 256.160156 231.601562 L 264.085938 231.601562 C 265.925781 231.601562 267.4375 230.085938 267.4375 228.25 L 267.4375 210.800781 C 267.4375 208.917969 265.96875 207.449219 264.085938 207.449219 Z M 264.085938 207.449219 " fill-opacity="1" fill-rule="nonzero"/></g><g clip-path="url(#afc43f591d)"><path fill="#ef5423" d="M 308.851562 231.105469 L 296.351562 231.105469 C 290.921875 224.917969 283.394531 216.324219 274.683594 206.503906 C 272.941406 204.511719 271.097656 202.464844 269.253906 200.367188 C 265.257812 195.867188 261.160156 191.164062 256.910156 186.355469 C 255.578125 184.820312 254.191406 183.289062 252.863281 181.753906 C 244.5625 172.34375 236.007812 162.628906 227.8125 153.320312 C 225.96875 151.273438 224.175781 149.226562 222.382812 147.183594 C 214.59375 138.335938 207.269531 130.050781 200.96875 122.890625 C 199.789062 121.5625 199.535156 119.667969 200.300781 118.082031 L 210.394531 97.066406 L 216.285156 97.066406 L 216.285156 84.28125 L 158.910156 84.28125 L 158.910156 97.066406 L 164.800781 97.066406 L 174.894531 118.082031 C 175.664062 119.667969 175.40625 121.5625 174.226562 122.890625 C 167.925781 130.050781 160.601562 138.335938 152.816406 147.183594 C 151.023438 149.226562 149.230469 151.273438 147.386719 153.320312 C 139.1875 162.628906 130.632812 172.292969 122.335938 181.753906 C 120.953125 183.289062 119.621094 184.820312 118.289062 186.355469 C 114.035156 191.164062 109.886719 195.867188 105.941406 200.367188 C 104.097656 202.464844 102.304688 204.511719 100.511719 206.503906 C 91.855469 216.324219 84.324219 224.917969 78.84375 231.105469 L 59.53125 231.105469 L 59.53125 251.507812 L 76.078125 251.507812 C 87.195312 273.601562 133.757812 290.53125 187.597656 290.53125 C 241.4375 290.53125 288.054688 273.601562 299.121094 251.507812 L 315.664062 251.507812 L 315.664062 231.105469 Z M 308.851562 231.105469 " fill-opacity="1" fill-rule="nonzero"/></g><path fill="#ef5423" d="M 299.171875 234.273438 L 76.078125 234.273438 C 81.558594 227.984375 90.265625 218.164062 100.511719 206.503906 C 102.253906 204.511719 104.097656 202.464844 105.941406 200.367188 C 109.9375 195.867188 114.035156 191.164062 118.289062 186.355469 C 119.621094 184.820312 121.003906 183.289062 122.335938 181.753906 C 130.632812 172.34375 139.1875 162.628906 147.386719 153.320312 C 149.230469 151.273438 151.023438 149.226562 152.816406 147.183594 C 160.601562 138.335938 167.925781 130.050781 174.226562 122.890625 C 175.40625 121.5625 175.664062 119.667969 174.894531 118.082031 L 161.574219 90.3125 C 161.675781 90.261719 161.832031 90.210938 161.933594 90.160156 L 213.367188 90.160156 C 213.46875 90.210938 213.570312 90.261719 213.722656 90.3125 L 200.40625 118.082031 C 199.636719 119.667969 199.894531 121.5625 201.070312 122.890625 C 207.371094 130.050781 214.699219 138.335938 222.484375 147.183594 C 224.277344 149.226562 226.070312 151.273438 227.914062 153.320312 C 236.109375 162.628906 244.664062 172.292969 252.964844 181.753906 C 254.347656 183.289062 255.679688 184.820312 257.011719 186.355469 C 261.261719 191.164062 265.410156 195.867188 269.355469 200.367188 C 271.199219 202.464844 272.992188 204.511719 274.785156 206.503906 C 284.980469 218.164062 293.636719 227.984375 299.171875 234.273438 Z M 299.171875 234.273438 " fill-opacity="1" fill-rule="nonzero"/><g clip-path="url(#2681ed8808)"><path fill="#ef5423" d="M 187.597656 290.53125 C 131.25 290.53125 82.839844 272.015625 74.746094 248.390625 L 300.453125 248.390625 C 292.355469 272.015625 243.949219 290.53125 187.597656 290.53125 Z M 187.597656 290.53125 " fill-opacity="1" fill-rule="nonzero"/></g><g clip-path="url(#f140768e35)"><path fill="#a31e22" d="M 59.53125 231.105469 L 315.664062 231.105469 L 315.664062 251.507812 L 59.53125 251.507812 Z M 59.53125 231.105469 " fill-opacity="1" fill-rule="nonzero"/></g><g clip-path="url(#06669dd823)"><path fill="#fdb515" d="M 158.910156 84.28125 L 216.285156 84.28125 L 216.285156 97.066406 L 158.910156 97.066406 Z M 158.910156 84.28125 " fill-opacity="1" fill-rule="nonzero"/></g><path fill="#fdb515" d="M 227.8125 153.320312 L 147.386719 153.320312 C 149.230469 151.273438 151.023438 149.226562 152.816406 147.183594 L 222.433594 147.183594 C 224.175781 149.226562 226.019531 151.273438 227.8125 153.320312 Z M 227.8125 153.320312 " fill-opacity="1" fill-rule="nonzero"/><path fill="#fdb515" d="M 274.683594 206.503906 L 100.511719 206.503906 C 102.253906 204.511719 104.097656 202.464844 105.941406 200.367188 L 269.355469 200.367188 C 271.148438 202.464844 272.941406 204.511719 274.683594 206.503906 Z M 274.683594 206.503906 " fill-opacity="1" fill-rule="nonzero"/><path fill="#fdb515" d="M 256.960938 186.355469 C 253.679688 189.015625 249.992188 190.5 246.152344 190.5 C 239.441406 190.5 233.085938 186.050781 228.835938 178.277344 C 225.660156 172.546875 221.304688 169.222656 216.898438 169.222656 C 212.496094 169.222656 208.140625 172.496094 204.964844 178.277344 C 200.710938 186.050781 194.359375 190.5 187.648438 190.5 C 184.269531 190.5 181.042969 189.375 178.070312 187.328125 C 175.097656 185.230469 172.488281 182.214844 170.335938 178.328125 C 167.160156 172.597656 162.804688 169.273438 158.398438 169.273438 C 153.992188 169.273438 149.640625 172.546875 146.464844 178.328125 C 142.160156 186.101562 135.859375 190.550781 129.148438 190.550781 C 125.304688 190.550781 121.617188 189.117188 118.339844 186.40625 C 119.671875 184.875 121.054688 183.339844 122.386719 181.804688 C 124.488281 183.492188 126.792969 184.414062 129.148438 184.414062 C 133.554688 184.414062 137.910156 181.140625 141.085938 175.359375 C 145.335938 167.585938 151.6875 163.136719 158.398438 163.136719 C 165.109375 163.136719 171.460938 167.585938 175.714844 175.359375 C 178.890625 181.089844 183.242188 184.414062 187.648438 184.414062 C 192.054688 184.414062 196.410156 181.140625 199.585938 175.359375 C 203.835938 167.585938 210.191406 163.136719 216.898438 163.136719 C 223.609375 163.136719 229.964844 167.585938 234.214844 175.359375 C 237.390625 181.089844 241.746094 184.414062 246.152344 184.414062 C 248.457031 184.414062 250.761719 183.492188 252.914062 181.804688 C 254.246094 183.289062 255.578125 184.820312 256.960938 186.355469 Z M 256.960938 186.355469 " fill-opacity="1" fill-rule="nonzero"/></svg>